<mxfile host="app.diagrams.net" agent="Mozilla/5.0 (Macintosh; Intel Mac OS X 10_15_7) AppleWebKit/537.36 (KHTML, like Gecko) Chrome/137.0.0.0 Safari/537.36 Edg/137.0.0.0" version="28.1.1">
  <diagram name="第 1 页" id="RN4lvHYUd4Jr9ojR2cUa">
    <mxGraphModel dx="994" dy="561" grid="1" gridSize="10" guides="1" tooltips="1" connect="1" arrows="1" fold="1" page="1" pageScale="1" pageWidth="1169" pageHeight="827" math="0" shadow="0">
      <root>
        <mxCell id="0" />
        <mxCell id="1" parent="0" />
        <mxCell id="QzTbZ07ebzW1ajoiMlfb-1" style="edgeStyle=none;html=1;exitX=0;exitY=0.5;exitDx=0;exitDy=0;entryX=0.5;entryY=0;entryDx=0;entryDy=0;fontSize=18;" edge="1" parent="1" source="QzTbZ07ebzW1ajoiMlfb-3" target="QzTbZ07ebzW1ajoiMlfb-42">
          <mxGeometry relative="1" as="geometry">
            <Array as="points">
              <mxPoint x="230" y="390" />
            </Array>
          </mxGeometry>
        </mxCell>
        <mxCell id="QzTbZ07ebzW1ajoiMlfb-2" value="3、将id为5更新数据的&lt;br&gt;旧数据写入undo日&lt;br&gt;志，用于数据回滚" style="edgeLabel;html=1;align=center;verticalAlign=middle;resizable=0;points=[];fontSize=14;" vertex="1" connectable="0" parent="QzTbZ07ebzW1ajoiMlfb-1">
          <mxGeometry x="0.1307" y="1" relative="1" as="geometry">
            <mxPoint as="offset" />
          </mxGeometry>
        </mxCell>
        <mxCell id="QzTbZ07ebzW1ajoiMlfb-3" value="" style="rounded=0;whiteSpace=wrap;html=1;" vertex="1" parent="1">
          <mxGeometry x="384" y="240" width="520" height="300" as="geometry" />
        </mxCell>
        <mxCell id="QzTbZ07ebzW1ajoiMlfb-4" style="edgeStyle=none;html=1;exitX=1;exitY=0.5;exitDx=0;exitDy=0;entryX=1;entryY=0.5;entryDx=0;entryDy=0;fontSize=18;" edge="1" parent="1" source="QzTbZ07ebzW1ajoiMlfb-6" target="QzTbZ07ebzW1ajoiMlfb-31">
          <mxGeometry relative="1" as="geometry">
            <Array as="points">
              <mxPoint x="730" y="410" />
              <mxPoint x="730" y="743" />
            </Array>
          </mxGeometry>
        </mxCell>
        <mxCell id="QzTbZ07ebzW1ajoiMlfb-5" value="9、以数据页为&lt;br&gt;单位，将缓存里&lt;br&gt;的数据，写入磁盘" style="edgeLabel;html=1;align=center;verticalAlign=middle;resizable=0;points=[];fontSize=14;" vertex="1" connectable="0" parent="QzTbZ07ebzW1ajoiMlfb-4">
          <mxGeometry x="-0.3468" y="4" relative="1" as="geometry">
            <mxPoint as="offset" />
          </mxGeometry>
        </mxCell>
        <mxCell id="QzTbZ07ebzW1ajoiMlfb-6" value="" style="rounded=0;whiteSpace=wrap;html=1;align=left;" vertex="1" parent="1">
          <mxGeometry x="414" y="306" width="250" height="210" as="geometry" />
        </mxCell>
        <mxCell id="QzTbZ07ebzW1ajoiMlfb-7" value="&lt;span style=&quot;text-align: left;&quot;&gt;Buffer Pool&lt;/span&gt;&lt;br style=&quot;text-align: left;&quot;&gt;&lt;span style=&quot;text-align: left;&quot;&gt;缓存池&lt;/span&gt;" style="text;html=1;strokeColor=none;fillColor=none;align=center;verticalAlign=middle;whiteSpace=wrap;rounded=0;fontSize=18;" vertex="1" parent="1">
          <mxGeometry x="444" y="316" width="184" height="40" as="geometry" />
        </mxCell>
        <mxCell id="QzTbZ07ebzW1ajoiMlfb-8" value="数据页1" style="swimlane;fontStyle=0;childLayout=stackLayout;horizontal=1;startSize=30;horizontalStack=0;resizeParent=1;resizeParentMax=0;resizeLast=0;collapsible=1;marginBottom=0;whiteSpace=wrap;html=1;fontSize=18;" vertex="1" parent="1">
          <mxGeometry x="424" y="386" width="105" height="120" as="geometry" />
        </mxCell>
        <mxCell id="QzTbZ07ebzW1ajoiMlfb-9" value="数据1" style="text;strokeColor=none;fillColor=none;align=left;verticalAlign=middle;spacingLeft=4;spacingRight=4;overflow=hidden;points=[[0,0.5],[1,0.5]];portConstraint=eastwest;rotatable=0;whiteSpace=wrap;html=1;fontSize=18;" vertex="1" parent="QzTbZ07ebzW1ajoiMlfb-8">
          <mxGeometry y="30" width="105" height="30" as="geometry" />
        </mxCell>
        <mxCell id="QzTbZ07ebzW1ajoiMlfb-10" value="数据2" style="text;strokeColor=none;fillColor=none;align=left;verticalAlign=middle;spacingLeft=4;spacingRight=4;overflow=hidden;points=[[0,0.5],[1,0.5]];portConstraint=eastwest;rotatable=0;whiteSpace=wrap;html=1;fontSize=18;" vertex="1" parent="QzTbZ07ebzW1ajoiMlfb-8">
          <mxGeometry y="60" width="105" height="30" as="geometry" />
        </mxCell>
        <mxCell id="QzTbZ07ebzW1ajoiMlfb-11" value="数据3" style="text;strokeColor=none;fillColor=none;align=left;verticalAlign=middle;spacingLeft=4;spacingRight=4;overflow=hidden;points=[[0,0.5],[1,0.5]];portConstraint=eastwest;rotatable=0;whiteSpace=wrap;html=1;fontSize=18;" vertex="1" parent="QzTbZ07ebzW1ajoiMlfb-8">
          <mxGeometry y="90" width="105" height="30" as="geometry" />
        </mxCell>
        <mxCell id="QzTbZ07ebzW1ajoiMlfb-12" value="数据页2" style="swimlane;fontStyle=0;childLayout=stackLayout;horizontal=1;startSize=30;horizontalStack=0;resizeParent=1;resizeParentMax=0;resizeLast=0;collapsible=1;marginBottom=0;whiteSpace=wrap;html=1;fontSize=18;" vertex="1" parent="1">
          <mxGeometry x="544" y="386" width="105" height="120" as="geometry" />
        </mxCell>
        <mxCell id="QzTbZ07ebzW1ajoiMlfb-13" value="数据4" style="text;strokeColor=none;fillColor=none;align=left;verticalAlign=middle;spacingLeft=4;spacingRight=4;overflow=hidden;points=[[0,0.5],[1,0.5]];portConstraint=eastwest;rotatable=0;whiteSpace=wrap;html=1;fontSize=18;" vertex="1" parent="QzTbZ07ebzW1ajoiMlfb-12">
          <mxGeometry y="30" width="105" height="30" as="geometry" />
        </mxCell>
        <mxCell id="QzTbZ07ebzW1ajoiMlfb-14" value="数据5" style="text;strokeColor=none;fillColor=none;align=left;verticalAlign=middle;spacingLeft=4;spacingRight=4;overflow=hidden;points=[[0,0.5],[1,0.5]];portConstraint=eastwest;rotatable=0;whiteSpace=wrap;html=1;fontSize=18;" vertex="1" parent="QzTbZ07ebzW1ajoiMlfb-12">
          <mxGeometry y="60" width="105" height="30" as="geometry" />
        </mxCell>
        <mxCell id="QzTbZ07ebzW1ajoiMlfb-15" value="数据6" style="text;strokeColor=none;fillColor=none;align=left;verticalAlign=middle;spacingLeft=4;spacingRight=4;overflow=hidden;points=[[0,0.5],[1,0.5]];portConstraint=eastwest;rotatable=0;whiteSpace=wrap;html=1;fontSize=18;" vertex="1" parent="QzTbZ07ebzW1ajoiMlfb-12">
          <mxGeometry y="90" width="105" height="30" as="geometry" />
        </mxCell>
        <mxCell id="QzTbZ07ebzW1ajoiMlfb-16" style="edgeStyle=none;html=1;exitX=0.5;exitY=1;exitDx=0;exitDy=0;entryX=0.5;entryY=0;entryDx=0;entryDy=0;fontSize=18;" edge="1" parent="1" source="QzTbZ07ebzW1ajoiMlfb-18" target="QzTbZ07ebzW1ajoiMlfb-43">
          <mxGeometry relative="1" as="geometry" />
        </mxCell>
        <mxCell id="QzTbZ07ebzW1ajoiMlfb-17" value="6、准备提交事务，将&lt;br&gt;redo日志写入磁盘" style="edgeLabel;html=1;align=center;verticalAlign=middle;resizable=0;points=[];fontSize=14;" vertex="1" connectable="0" parent="QzTbZ07ebzW1ajoiMlfb-16">
          <mxGeometry x="0.7444" relative="1" as="geometry">
            <mxPoint y="-1" as="offset" />
          </mxGeometry>
        </mxCell>
        <mxCell id="QzTbZ07ebzW1ajoiMlfb-18" value="Redo Log Buffer" style="rounded=0;whiteSpace=wrap;html=1;fontSize=18;" vertex="1" parent="1">
          <mxGeometry x="764" y="306" width="120" height="60" as="geometry" />
        </mxCell>
        <mxCell id="QzTbZ07ebzW1ajoiMlfb-19" value="InnoDB引擎" style="text;html=1;strokeColor=none;fillColor=none;align=center;verticalAlign=middle;whiteSpace=wrap;rounded=0;fontSize=18;" vertex="1" parent="1">
          <mxGeometry x="524" y="260" width="240" height="30" as="geometry" />
        </mxCell>
        <mxCell id="QzTbZ07ebzW1ajoiMlfb-20" style="edgeStyle=none;html=1;exitX=1;exitY=0.75;exitDx=0;exitDy=0;entryX=0.5;entryY=0;entryDx=0;entryDy=0;fontSize=18;" edge="1" parent="1" source="QzTbZ07ebzW1ajoiMlfb-28" target="QzTbZ07ebzW1ajoiMlfb-18">
          <mxGeometry relative="1" as="geometry">
            <Array as="points">
              <mxPoint x="824" y="135" />
            </Array>
          </mxGeometry>
        </mxCell>
        <mxCell id="QzTbZ07ebzW1ajoiMlfb-21" value="5、写redo日志" style="edgeLabel;html=1;align=center;verticalAlign=middle;resizable=0;points=[];fontSize=14;" vertex="1" connectable="0" parent="QzTbZ07ebzW1ajoiMlfb-20">
          <mxGeometry x="0.212" y="3" relative="1" as="geometry">
            <mxPoint as="offset" />
          </mxGeometry>
        </mxCell>
        <mxCell id="QzTbZ07ebzW1ajoiMlfb-22" style="edgeStyle=none;html=1;exitX=1;exitY=0.25;exitDx=0;exitDy=0;entryX=0.5;entryY=0;entryDx=0;entryDy=0;fontSize=18;" edge="1" parent="1" source="QzTbZ07ebzW1ajoiMlfb-28" target="QzTbZ07ebzW1ajoiMlfb-46">
          <mxGeometry relative="1" as="geometry">
            <Array as="points">
              <mxPoint x="1050" y="105" />
            </Array>
          </mxGeometry>
        </mxCell>
        <mxCell id="QzTbZ07ebzW1ajoiMlfb-23" value="7、准备提交事务，&lt;br&gt;将binlog日志写入磁盘" style="edgeLabel;html=1;align=center;verticalAlign=middle;resizable=0;points=[];fontSize=14;" vertex="1" connectable="0" parent="QzTbZ07ebzW1ajoiMlfb-22">
          <mxGeometry x="0.4445" y="1" relative="1" as="geometry">
            <mxPoint as="offset" />
          </mxGeometry>
        </mxCell>
        <mxCell id="QzTbZ07ebzW1ajoiMlfb-24" style="edgeStyle=none;html=1;exitX=0.5;exitY=1;exitDx=0;exitDy=0;entryX=0.5;entryY=0;entryDx=0;entryDy=0;fontSize=18;" edge="1" parent="1" source="QzTbZ07ebzW1ajoiMlfb-28" target="QzTbZ07ebzW1ajoiMlfb-3">
          <mxGeometry relative="1" as="geometry" />
        </mxCell>
        <mxCell id="QzTbZ07ebzW1ajoiMlfb-25" value="&lt;font style=&quot;font-size: 14px;&quot;&gt;1、调用引擎接口&lt;br&gt;更新id为5的数据&lt;br&gt;&lt;/font&gt;" style="edgeLabel;html=1;align=center;verticalAlign=middle;resizable=0;points=[];fontSize=18;" vertex="1" connectable="0" parent="QzTbZ07ebzW1ajoiMlfb-24">
          <mxGeometry x="0.0778" y="2" relative="1" as="geometry">
            <mxPoint as="offset" />
          </mxGeometry>
        </mxCell>
        <mxCell id="QzTbZ07ebzW1ajoiMlfb-26" style="edgeStyle=none;html=1;exitX=0;exitY=0.5;exitDx=0;exitDy=0;fontSize=18;entryX=0.5;entryY=0;entryDx=0;entryDy=0;" edge="1" parent="1" source="QzTbZ07ebzW1ajoiMlfb-28" target="QzTbZ07ebzW1ajoiMlfb-6">
          <mxGeometry relative="1" as="geometry">
            <mxPoint x="540" y="180" as="targetPoint" />
            <Array as="points">
              <mxPoint x="540" y="120" />
            </Array>
          </mxGeometry>
        </mxCell>
        <mxCell id="QzTbZ07ebzW1ajoiMlfb-27" value="4、更新内存&lt;br&gt;里的数据" style="edgeLabel;html=1;align=center;verticalAlign=middle;resizable=0;points=[];fontSize=14;" vertex="1" connectable="0" parent="QzTbZ07ebzW1ajoiMlfb-26">
          <mxGeometry x="0.0491" relative="1" as="geometry">
            <mxPoint y="-1" as="offset" />
          </mxGeometry>
        </mxCell>
        <mxCell id="QzTbZ07ebzW1ajoiMlfb-28" value="增删改查" style="rounded=1;whiteSpace=wrap;html=1;fontSize=18;" vertex="1" parent="1">
          <mxGeometry x="584" y="90" width="120" height="60" as="geometry" />
        </mxCell>
        <mxCell id="QzTbZ07ebzW1ajoiMlfb-29" style="edgeStyle=none;html=1;exitX=0.5;exitY=0;exitDx=0;exitDy=0;entryX=0.5;entryY=1;entryDx=0;entryDy=0;fontSize=18;" edge="1" parent="1" source="QzTbZ07ebzW1ajoiMlfb-31" target="QzTbZ07ebzW1ajoiMlfb-6">
          <mxGeometry relative="1" as="geometry" />
        </mxCell>
        <mxCell id="QzTbZ07ebzW1ajoiMlfb-30" value="2、从磁盘文件里将id为5的&lt;br&gt;数据所处的数据页，整页加&lt;br&gt;载读取到Buffer Pool缓存里" style="edgeLabel;html=1;align=center;verticalAlign=middle;resizable=0;points=[];fontSize=14;" vertex="1" connectable="0" parent="QzTbZ07ebzW1ajoiMlfb-29">
          <mxGeometry x="0.0522" relative="1" as="geometry">
            <mxPoint as="offset" />
          </mxGeometry>
        </mxCell>
        <mxCell id="QzTbZ07ebzW1ajoiMlfb-31" value="" style="rounded=0;whiteSpace=wrap;html=1;fontSize=18;" vertex="1" parent="1">
          <mxGeometry x="384" y="650" width="310" height="185" as="geometry" />
        </mxCell>
        <mxCell id="QzTbZ07ebzW1ajoiMlfb-32" value="数据页1" style="swimlane;fontStyle=0;childLayout=stackLayout;horizontal=1;startSize=30;horizontalStack=0;resizeParent=1;resizeParentMax=0;resizeLast=0;collapsible=1;marginBottom=0;whiteSpace=wrap;html=1;fontSize=18;" vertex="1" parent="1">
          <mxGeometry x="398" y="700" width="105" height="120" as="geometry" />
        </mxCell>
        <mxCell id="QzTbZ07ebzW1ajoiMlfb-33" value="数据1" style="text;strokeColor=none;fillColor=none;align=left;verticalAlign=middle;spacingLeft=4;spacingRight=4;overflow=hidden;points=[[0,0.5],[1,0.5]];portConstraint=eastwest;rotatable=0;whiteSpace=wrap;html=1;fontSize=18;" vertex="1" parent="QzTbZ07ebzW1ajoiMlfb-32">
          <mxGeometry y="30" width="105" height="30" as="geometry" />
        </mxCell>
        <mxCell id="QzTbZ07ebzW1ajoiMlfb-34" value="数据2" style="text;strokeColor=none;fillColor=none;align=left;verticalAlign=middle;spacingLeft=4;spacingRight=4;overflow=hidden;points=[[0,0.5],[1,0.5]];portConstraint=eastwest;rotatable=0;whiteSpace=wrap;html=1;fontSize=18;" vertex="1" parent="QzTbZ07ebzW1ajoiMlfb-32">
          <mxGeometry y="60" width="105" height="30" as="geometry" />
        </mxCell>
        <mxCell id="QzTbZ07ebzW1ajoiMlfb-35" value="数据3" style="text;strokeColor=none;fillColor=none;align=left;verticalAlign=middle;spacingLeft=4;spacingRight=4;overflow=hidden;points=[[0,0.5],[1,0.5]];portConstraint=eastwest;rotatable=0;whiteSpace=wrap;html=1;fontSize=18;" vertex="1" parent="QzTbZ07ebzW1ajoiMlfb-32">
          <mxGeometry y="90" width="105" height="30" as="geometry" />
        </mxCell>
        <mxCell id="QzTbZ07ebzW1ajoiMlfb-36" value="数据页2" style="swimlane;fontStyle=0;childLayout=stackLayout;horizontal=1;startSize=30;horizontalStack=0;resizeParent=1;resizeParentMax=0;resizeLast=0;collapsible=1;marginBottom=0;whiteSpace=wrap;html=1;fontSize=18;" vertex="1" parent="1">
          <mxGeometry x="518" y="700" width="105" height="120" as="geometry" />
        </mxCell>
        <mxCell id="QzTbZ07ebzW1ajoiMlfb-37" value="数据4" style="text;strokeColor=none;fillColor=none;align=left;verticalAlign=middle;spacingLeft=4;spacingRight=4;overflow=hidden;points=[[0,0.5],[1,0.5]];portConstraint=eastwest;rotatable=0;whiteSpace=wrap;html=1;fontSize=18;" vertex="1" parent="QzTbZ07ebzW1ajoiMlfb-36">
          <mxGeometry y="30" width="105" height="30" as="geometry" />
        </mxCell>
        <mxCell id="QzTbZ07ebzW1ajoiMlfb-38" value="数据5" style="text;strokeColor=none;fillColor=none;align=left;verticalAlign=middle;spacingLeft=4;spacingRight=4;overflow=hidden;points=[[0,0.5],[1,0.5]];portConstraint=eastwest;rotatable=0;whiteSpace=wrap;html=1;fontSize=18;" vertex="1" parent="QzTbZ07ebzW1ajoiMlfb-36">
          <mxGeometry y="60" width="105" height="30" as="geometry" />
        </mxCell>
        <mxCell id="QzTbZ07ebzW1ajoiMlfb-39" value="数据6" style="text;strokeColor=none;fillColor=none;align=left;verticalAlign=middle;spacingLeft=4;spacingRight=4;overflow=hidden;points=[[0,0.5],[1,0.5]];portConstraint=eastwest;rotatable=0;whiteSpace=wrap;html=1;fontSize=18;" vertex="1" parent="QzTbZ07ebzW1ajoiMlfb-36">
          <mxGeometry y="90" width="105" height="30" as="geometry" />
        </mxCell>
        <mxCell id="QzTbZ07ebzW1ajoiMlfb-40" value="......" style="text;html=1;strokeColor=none;fillColor=none;align=center;verticalAlign=middle;whiteSpace=wrap;rounded=0;fontSize=18;" vertex="1" parent="1">
          <mxGeometry x="628" y="790" width="60" height="30" as="geometry" />
        </mxCell>
        <mxCell id="QzTbZ07ebzW1ajoiMlfb-41" value="磁盘文件（.ibd）" style="text;html=1;strokeColor=none;fillColor=none;align=center;verticalAlign=middle;whiteSpace=wrap;rounded=0;fontSize=18;" vertex="1" parent="1">
          <mxGeometry x="464" y="660" width="150" height="30" as="geometry" />
        </mxCell>
        <mxCell id="QzTbZ07ebzW1ajoiMlfb-42" value="undo&lt;br&gt;日志文件" style="rounded=0;whiteSpace=wrap;html=1;fontSize=18;" vertex="1" parent="1">
          <mxGeometry x="170" y="650" width="120" height="60" as="geometry" />
        </mxCell>
        <mxCell id="QzTbZ07ebzW1ajoiMlfb-43" value="redo&lt;br&gt;日志文件" style="rounded=0;whiteSpace=wrap;html=1;fontSize=18;" vertex="1" parent="1">
          <mxGeometry x="764" y="650" width="120" height="60" as="geometry" />
        </mxCell>
        <mxCell id="QzTbZ07ebzW1ajoiMlfb-44" style="edgeStyle=none;html=1;exitX=0.5;exitY=1;exitDx=0;exitDy=0;entryX=0.5;entryY=1;entryDx=0;entryDy=0;fontSize=18;" edge="1" parent="1" source="QzTbZ07ebzW1ajoiMlfb-46" target="QzTbZ07ebzW1ajoiMlfb-43">
          <mxGeometry relative="1" as="geometry">
            <Array as="points">
              <mxPoint x="1050" y="780" />
              <mxPoint x="824" y="780" />
            </Array>
          </mxGeometry>
        </mxCell>
        <mxCell id="QzTbZ07ebzW1ajoiMlfb-45" value="8、将commit标记写入到&lt;br&gt;redo日志文件里，提交事&lt;br&gt;务操作完成。这个标记是&lt;br&gt;为了保证redo日志和binlog&lt;br&gt;日志数据一致。" style="edgeLabel;html=1;align=center;verticalAlign=middle;resizable=0;points=[];fontSize=14;" vertex="1" connectable="0" parent="QzTbZ07ebzW1ajoiMlfb-44">
          <mxGeometry x="0.0948" y="3" relative="1" as="geometry">
            <mxPoint as="offset" />
          </mxGeometry>
        </mxCell>
        <mxCell id="QzTbZ07ebzW1ajoiMlfb-46" value="binlog&lt;br&gt;日志文件" style="rounded=0;whiteSpace=wrap;html=1;fontSize=18;" vertex="1" parent="1">
          <mxGeometry x="990" y="650" width="120" height="60" as="geometry" />
        </mxCell>
      </root>
    </mxGraphModel>
  </diagram>
</mxfile>
